<svg width="389" height="559" viewBox="0 0 389 559" fill="none" xmlns="http://www.w3.org/2000/svg">
<g filter="url(#filter0_d_1005_145)">
<g clip-path="url(#clip0_1005_145)">
<rect x="24" y="20" width="340.667" height="511" rx="24" fill="white"/>
<rect x="312" y="17" width="79" height="550" fill="#E00606"/>
<rect x="303" y="1" width="7" height="550" fill="#E00606"/>
<path d="M73.125 175H70.8977L79.3636 151.727H81.6364L90.1023 175H87.875L80.5795 154.489H80.4205L73.125 175ZM74.7273 166.08H86.2727V167.989H74.7273V166.08ZM102.784 175V151.727H110.296C111.947 151.727 113.326 152.027 114.432 152.625C115.546 153.216 116.383 154.038 116.943 155.091C117.512 156.136 117.796 157.337 117.796 158.693C117.796 160.049 117.512 161.246 116.943 162.284C116.383 163.322 115.549 164.133 114.443 164.716C113.337 165.299 111.966 165.591 110.33 165.591H103.932V163.648H110.273C111.485 163.648 112.493 163.447 113.296 163.045C114.106 162.644 114.709 162.072 115.102 161.33C115.504 160.587 115.705 159.708 115.705 158.693C115.705 157.678 115.504 156.792 115.102 156.034C114.701 155.269 114.095 154.678 113.284 154.261C112.481 153.845 111.466 153.636 110.239 153.636H104.909V175H102.784ZM113.046 164.5L118.773 175H116.318L110.648 164.5H113.046ZM129.267 175.364C127.639 175.364 126.229 174.985 125.04 174.227C123.851 173.462 122.93 172.405 122.279 171.057C121.635 169.701 121.313 168.14 121.313 166.375C121.313 164.617 121.635 163.057 122.279 161.693C122.93 160.322 123.828 159.25 124.972 158.477C126.123 157.697 127.453 157.307 128.961 157.307C129.908 157.307 130.82 157.481 131.699 157.83C132.578 158.17 133.366 158.697 134.063 159.409C134.767 160.114 135.324 161.004 135.733 162.08C136.142 163.148 136.347 164.413 136.347 165.875V166.875H122.711V165.091H134.279C134.279 163.97 134.051 162.962 133.597 162.068C133.15 161.167 132.525 160.455 131.722 159.932C130.926 159.409 130.006 159.148 128.961 159.148C127.854 159.148 126.881 159.443 126.04 160.034C125.199 160.625 124.54 161.405 124.063 162.375C123.593 163.345 123.354 164.405 123.347 165.557V166.625C123.347 168.011 123.586 169.223 124.063 170.261C124.548 171.292 125.233 172.091 126.12 172.659C127.006 173.227 128.055 173.511 129.267 173.511C130.093 173.511 130.817 173.383 131.438 173.125C132.067 172.867 132.593 172.523 133.017 172.091C133.449 171.652 133.775 171.17 133.995 170.648L135.915 171.273C135.65 172.008 135.214 172.686 134.608 173.307C134.01 173.928 133.26 174.428 132.358 174.807C131.464 175.178 130.434 175.364 129.267 175.364ZM153.631 157.545L147.256 175H145.097L138.722 157.545H140.915L146.097 172.33H146.256L151.438 157.545H153.631ZM157.458 175V157.545H159.492V175H157.458ZM158.492 154.545C158.075 154.545 157.719 154.405 157.424 154.125C157.128 153.837 156.981 153.492 156.981 153.091C156.981 152.689 157.128 152.348 157.424 152.068C157.719 151.78 158.075 151.636 158.492 151.636C158.909 151.636 159.265 151.78 159.56 152.068C159.856 152.348 160.003 152.689 160.003 153.091C160.003 153.492 159.856 153.837 159.56 154.125C159.265 154.405 158.909 154.545 158.492 154.545ZM176.415 161.375L174.563 161.898C174.381 161.375 174.124 160.902 173.79 160.477C173.457 160.053 173.021 159.716 172.484 159.466C171.953 159.216 171.294 159.091 170.506 159.091C169.325 159.091 168.355 159.371 167.597 159.932C166.84 160.492 166.461 161.216 166.461 162.102C166.461 162.852 166.718 163.462 167.234 163.932C167.756 164.394 168.559 164.761 169.643 165.034L172.279 165.682C173.741 166.038 174.836 166.602 175.563 167.375C176.298 168.148 176.665 169.117 176.665 170.284C176.665 171.269 176.393 172.144 175.847 172.909C175.302 173.674 174.54 174.277 173.563 174.716C172.593 175.148 171.468 175.364 170.188 175.364C168.484 175.364 167.078 174.981 165.972 174.216C164.866 173.443 164.158 172.33 163.847 170.875L165.79 170.398C166.04 171.436 166.529 172.22 167.256 172.75C167.991 173.28 168.957 173.545 170.154 173.545C171.495 173.545 172.567 173.246 173.37 172.648C174.173 172.042 174.575 171.284 174.575 170.375C174.575 169.67 174.34 169.08 173.87 168.602C173.4 168.117 172.688 167.761 171.734 167.534L168.881 166.852C167.366 166.489 166.245 165.913 165.518 165.125C164.79 164.337 164.427 163.36 164.427 162.193C164.427 161.231 164.688 160.386 165.211 159.659C165.734 158.924 166.453 158.348 167.37 157.932C168.287 157.515 169.332 157.307 170.506 157.307C172.105 157.307 173.381 157.67 174.336 158.398C175.298 159.117 175.991 160.11 176.415 161.375ZM187.816 157.545V159.307H179.487V157.545H187.816ZM182.089 153.364H184.123V170.443C184.123 171.17 184.248 171.742 184.498 172.159C184.748 172.568 185.074 172.86 185.475 173.034C185.877 173.201 186.305 173.284 186.759 173.284C187.024 173.284 187.252 173.269 187.441 173.239C187.631 173.201 187.797 173.163 187.941 173.125L188.373 174.955C188.176 175.03 187.934 175.098 187.646 175.159C187.358 175.227 187.002 175.261 186.577 175.261C185.835 175.261 185.119 175.098 184.43 174.773C183.748 174.447 183.187 173.962 182.748 173.318C182.309 172.674 182.089 171.875 182.089 170.92V153.364ZM197.132 175.398C196.079 175.398 195.116 175.193 194.245 174.784C193.374 174.367 192.681 173.769 192.166 172.989C191.65 172.201 191.393 171.246 191.393 170.125C191.393 169.261 191.556 168.534 191.882 167.943C192.207 167.352 192.669 166.867 193.268 166.489C193.866 166.11 194.575 165.811 195.393 165.591C196.211 165.371 197.113 165.201 198.097 165.08C199.075 164.958 199.9 164.852 200.575 164.761C201.257 164.67 201.775 164.527 202.132 164.33C202.488 164.133 202.666 163.814 202.666 163.375V162.966C202.666 161.777 202.31 160.841 201.597 160.159C200.893 159.47 199.878 159.125 198.552 159.125C197.294 159.125 196.268 159.402 195.472 159.955C194.685 160.508 194.132 161.159 193.813 161.909L191.893 161.216C192.287 160.261 192.832 159.5 193.529 158.932C194.226 158.356 195.007 157.943 195.87 157.693C196.734 157.436 197.609 157.307 198.495 157.307C199.162 157.307 199.855 157.394 200.575 157.568C201.302 157.742 201.976 158.045 202.597 158.477C203.219 158.902 203.722 159.496 204.109 160.261C204.495 161.019 204.688 161.981 204.688 163.148V175H202.666V172.239H202.541C202.298 172.754 201.938 173.254 201.461 173.739C200.984 174.223 200.385 174.621 199.666 174.932C198.946 175.242 198.101 175.398 197.132 175.398ZM197.404 173.545C198.48 173.545 199.412 173.307 200.2 172.83C200.988 172.352 201.594 171.72 202.018 170.932C202.45 170.136 202.666 169.261 202.666 168.307V165.784C202.514 165.928 202.26 166.057 201.904 166.17C201.556 166.284 201.15 166.386 200.688 166.477C200.234 166.561 199.779 166.633 199.325 166.693C198.87 166.754 198.461 166.807 198.097 166.852C197.113 166.973 196.272 167.163 195.575 167.42C194.878 167.678 194.344 168.034 193.972 168.489C193.601 168.936 193.416 169.511 193.416 170.216C193.416 171.277 193.794 172.098 194.552 172.682C195.31 173.258 196.26 173.545 197.404 173.545ZM71.6818 194.636V192.727H88.5568V194.636H81.1818V216H79.0568V194.636H71.6818ZM92.7899 216V198.545H94.824V216H92.7899ZM93.824 195.545C93.4073 195.545 93.0512 195.405 92.7558 195.125C92.4603 194.837 92.3126 194.492 92.3126 194.091C92.3126 193.689 92.4603 193.348 92.7558 193.068C93.0512 192.78 93.4073 192.636 93.824 192.636C94.2406 192.636 94.5967 192.78 94.8922 193.068C95.1876 193.348 95.3353 193.689 95.3353 194.091C95.3353 194.492 95.1876 194.837 94.8922 195.125C94.5967 195.405 94.2406 195.545 93.824 195.545ZM100.02 216V198.545H101.986V201.227H102.168C102.516 200.326 103.096 199.617 103.906 199.102C104.725 198.58 105.706 198.318 106.85 198.318C108.054 198.318 109.043 198.602 109.816 199.17C110.596 199.731 111.179 200.504 111.566 201.489H111.713C112.107 200.519 112.747 199.75 113.634 199.182C114.528 198.606 115.611 198.318 116.884 198.318C118.505 198.318 119.785 198.83 120.725 199.852C121.664 200.867 122.134 202.352 122.134 204.307V216H120.111V204.307C120.111 202.928 119.759 201.894 119.054 201.205C118.35 200.515 117.422 200.17 116.27 200.17C114.937 200.17 113.91 200.58 113.191 201.398C112.471 202.216 112.111 203.254 112.111 204.511V216H110.043V204.125C110.043 202.943 109.713 201.989 109.054 201.261C108.395 200.534 107.467 200.17 106.27 200.17C105.467 200.17 104.744 200.367 104.1 200.761C103.463 201.155 102.959 201.705 102.588 202.409C102.225 203.106 102.043 203.909 102.043 204.818V216H100.02ZM134.392 216.364C132.764 216.364 131.354 215.985 130.165 215.227C128.976 214.462 128.055 213.405 127.404 212.057C126.76 210.701 126.438 209.14 126.438 207.375C126.438 205.617 126.76 204.057 127.404 202.693C128.055 201.322 128.953 200.25 130.097 199.477C131.248 198.697 132.578 198.307 134.086 198.307C135.033 198.307 135.945 198.481 136.824 198.83C137.703 199.17 138.491 199.697 139.188 200.409C139.892 201.114 140.449 202.004 140.858 203.08C141.267 204.148 141.472 205.413 141.472 206.875V207.875H127.836V206.091H139.404C139.404 204.97 139.176 203.962 138.722 203.068C138.275 202.167 137.65 201.455 136.847 200.932C136.051 200.409 135.131 200.148 134.086 200.148C132.979 200.148 132.006 200.443 131.165 201.034C130.324 201.625 129.665 202.405 129.188 203.375C128.718 204.345 128.479 205.405 128.472 206.557V207.625C128.472 209.011 128.711 210.223 129.188 211.261C129.673 212.292 130.358 213.091 131.245 213.659C132.131 214.227 133.18 214.511 134.392 214.511C135.218 214.511 135.942 214.383 136.563 214.125C137.192 213.867 137.718 213.523 138.142 213.091C138.574 212.652 138.9 212.17 139.12 211.648L141.04 212.273C140.775 213.008 140.339 213.686 139.733 214.307C139.135 214.928 138.385 215.428 137.483 215.807C136.589 216.178 135.559 216.364 134.392 216.364ZM161.68 216.364C160.051 216.364 158.642 215.985 157.452 215.227C156.263 214.462 155.342 213.405 154.691 212.057C154.047 210.701 153.725 209.14 153.725 207.375C153.725 205.617 154.047 204.057 154.691 202.693C155.342 201.322 156.24 200.25 157.384 199.477C158.536 198.697 159.865 198.307 161.373 198.307C162.32 198.307 163.233 198.481 164.111 198.83C164.99 199.17 165.778 199.697 166.475 200.409C167.18 201.114 167.736 202.004 168.145 203.08C168.555 204.148 168.759 205.413 168.759 206.875V207.875H155.123V206.091H166.691C166.691 204.97 166.464 203.962 166.009 203.068C165.562 202.167 164.937 201.455 164.134 200.932C163.339 200.409 162.418 200.148 161.373 200.148C160.267 200.148 159.293 200.443 158.452 201.034C157.611 201.625 156.952 202.405 156.475 203.375C156.005 204.345 155.767 205.405 155.759 206.557V207.625C155.759 209.011 155.998 210.223 156.475 211.261C156.96 212.292 157.645 213.091 158.532 213.659C159.418 214.227 160.467 214.511 161.68 214.511C162.505 214.511 163.229 214.383 163.85 214.125C164.479 213.867 165.005 213.523 165.43 213.091C165.861 212.652 166.187 212.17 166.407 211.648L168.327 212.273C168.062 213.008 167.626 213.686 167.02 214.307C166.422 214.928 165.672 215.428 164.77 215.807C163.876 216.178 162.846 216.364 161.68 216.364ZM175.086 192.727V216H173.063V192.727H175.086ZM187.342 216.364C185.713 216.364 184.304 215.985 183.114 215.227C181.925 214.462 181.005 213.405 180.353 212.057C179.709 210.701 179.387 209.14 179.387 207.375C179.387 205.617 179.709 204.057 180.353 202.693C181.005 201.322 181.902 200.25 183.046 199.477C184.198 198.697 185.527 198.307 187.035 198.307C187.982 198.307 188.895 198.481 189.773 198.83C190.652 199.17 191.44 199.697 192.137 200.409C192.842 201.114 193.398 202.004 193.808 203.08C194.217 204.148 194.421 205.413 194.421 206.875V207.875H180.785V206.091H192.353C192.353 204.97 192.126 203.962 191.671 203.068C191.224 202.167 190.599 201.455 189.796 200.932C189.001 200.409 188.08 200.148 187.035 200.148C185.929 200.148 184.955 200.443 184.114 201.034C183.273 201.625 182.614 202.405 182.137 203.375C181.667 204.345 181.429 205.405 181.421 206.557V207.625C181.421 209.011 181.66 210.223 182.137 211.261C182.622 212.292 183.308 213.091 184.194 213.659C185.08 214.227 186.13 214.511 187.342 214.511C188.167 214.511 188.891 214.383 189.512 214.125C190.141 213.867 190.667 213.523 191.092 213.091C191.523 212.652 191.849 212.17 192.069 211.648L193.989 212.273C193.724 213.008 193.289 213.686 192.683 214.307C192.084 214.928 191.334 215.428 190.433 215.807C189.539 216.178 188.508 216.364 187.342 216.364ZM205.384 222.909C204.195 222.909 203.153 222.754 202.259 222.443C201.365 222.14 200.612 221.723 199.998 221.193C199.384 220.663 198.907 220.068 198.566 219.409L200.225 218.318C200.475 218.758 200.809 219.189 201.225 219.614C201.65 220.038 202.199 220.39 202.873 220.67C203.555 220.951 204.392 221.091 205.384 221.091C206.93 221.091 208.176 220.705 209.123 219.932C210.078 219.159 210.555 217.958 210.555 216.33V212.398H210.373C210.138 212.928 209.801 213.458 209.362 213.989C208.922 214.511 208.347 214.947 207.634 215.295C206.93 215.644 206.055 215.818 205.009 215.818C203.615 215.818 202.377 215.473 201.293 214.784C200.218 214.095 199.369 213.11 198.748 211.83C198.134 210.542 197.828 209.008 197.828 207.227C197.828 205.462 198.127 203.909 198.725 202.568C199.331 201.227 200.176 200.182 201.259 199.432C202.343 198.682 203.604 198.307 205.043 198.307C206.112 198.307 206.998 198.496 207.703 198.875C208.407 199.246 208.972 199.708 209.396 200.261C209.828 200.814 210.165 201.352 210.407 201.875H210.612V198.545H212.589V216.455C212.589 217.932 212.275 219.148 211.646 220.102C211.017 221.057 210.161 221.761 209.078 222.216C207.994 222.678 206.763 222.909 205.384 222.909ZM205.248 213.966C206.369 213.966 207.328 213.697 208.123 213.159C208.918 212.614 209.528 211.833 209.953 210.818C210.377 209.803 210.589 208.595 210.589 207.193C210.589 205.83 210.381 204.621 209.964 203.568C209.547 202.508 208.941 201.674 208.146 201.068C207.358 200.455 206.392 200.148 205.248 200.148C204.081 200.148 203.097 200.462 202.293 201.091C201.49 201.72 200.884 202.568 200.475 203.636C200.066 204.697 199.862 205.883 199.862 207.193C199.862 208.527 200.07 209.705 200.487 210.727C200.903 211.742 201.513 212.538 202.316 213.114C203.119 213.682 204.097 213.966 205.248 213.966ZM224.848 216.364C223.219 216.364 221.81 215.985 220.62 215.227C219.431 214.462 218.51 213.405 217.859 212.057C217.215 210.701 216.893 209.14 216.893 207.375C216.893 205.617 217.215 204.057 217.859 202.693C218.51 201.322 219.408 200.25 220.552 199.477C221.704 198.697 223.033 198.307 224.541 198.307C225.488 198.307 226.401 198.481 227.279 198.83C228.158 199.17 228.946 199.697 229.643 200.409C230.348 201.114 230.904 202.004 231.313 203.08C231.723 204.148 231.927 205.413 231.927 206.875V207.875H218.291V206.091H229.859C229.859 204.97 229.632 203.962 229.177 203.068C228.73 202.167 228.105 201.455 227.302 200.932C226.507 200.409 225.586 200.148 224.541 200.148C223.435 200.148 222.461 200.443 221.62 201.034C220.779 201.625 220.12 202.405 219.643 203.375C219.173 204.345 218.935 205.405 218.927 206.557V207.625C218.927 209.011 219.166 210.223 219.643 211.261C220.128 212.292 220.813 213.091 221.7 213.659C222.586 214.227 223.635 214.511 224.848 214.511C225.673 214.511 226.397 214.383 227.018 214.125C227.647 213.867 228.173 213.523 228.598 213.091C229.029 212.652 229.355 212.17 229.575 211.648L231.495 212.273C231.23 213.008 230.795 213.686 230.188 214.307C229.59 214.928 228.84 215.428 227.938 215.807C227.045 216.178 226.014 216.364 224.848 216.364ZM247.322 209.33V198.545H249.345V216H247.322V213.102H247.163C246.754 213.996 246.106 214.742 245.22 215.341C244.333 215.932 243.25 216.227 241.97 216.227C240.856 216.227 239.868 215.985 239.004 215.5C238.14 215.008 237.462 214.288 236.97 213.341C236.477 212.394 236.231 211.231 236.231 209.852V198.545H238.254V209.727C238.254 211.091 238.655 212.189 239.458 213.023C240.262 213.848 241.292 214.261 242.549 214.261C243.337 214.261 244.095 214.072 244.822 213.693C245.549 213.314 246.148 212.761 246.618 212.034C247.087 211.299 247.322 210.398 247.322 209.33ZM270.177 216.364C268.67 216.364 267.337 215.981 266.177 215.216C265.026 214.451 264.124 213.394 263.473 212.045C262.821 210.689 262.496 209.125 262.496 207.352C262.496 205.564 262.821 203.992 263.473 202.636C264.124 201.273 265.026 200.212 266.177 199.455C267.337 198.689 268.67 198.307 270.177 198.307C271.685 198.307 273.015 198.689 274.166 199.455C275.318 200.22 276.219 201.28 276.871 202.636C277.53 203.992 277.859 205.564 277.859 207.352C277.859 209.125 277.534 210.689 276.882 212.045C276.23 213.394 275.325 214.451 274.166 215.216C273.015 215.981 271.685 216.364 270.177 216.364ZM270.177 214.511C271.39 214.511 272.416 214.186 273.257 213.534C274.098 212.883 274.734 212.015 275.166 210.932C275.605 209.848 275.825 208.655 275.825 207.352C275.825 206.049 275.605 204.852 275.166 203.761C274.734 202.67 274.098 201.795 273.257 201.136C272.416 200.477 271.39 200.148 270.177 200.148C268.973 200.148 267.946 200.477 267.098 201.136C266.257 201.795 265.617 202.67 265.177 203.761C264.746 204.852 264.53 206.049 264.53 207.352C264.53 208.655 264.746 209.848 265.177 210.932C265.617 212.015 266.257 212.883 267.098 213.534C267.939 214.186 268.965 214.511 270.177 214.511ZM79.9091 257H73.0909V233.727H80.3182C82.5379 233.727 84.4356 234.189 86.0114 235.114C87.5947 236.038 88.8068 237.364 89.6477 239.091C90.4886 240.818 90.9091 242.89 90.9091 245.307C90.9091 247.746 90.4773 249.841 89.6136 251.591C88.7576 253.333 87.5076 254.67 85.8636 255.602C84.2273 256.534 82.2424 257 79.9091 257ZM75.2159 255.091H79.7841C81.7841 255.091 83.4583 254.697 84.8068 253.909C86.1553 253.121 87.1667 251.996 87.8409 250.534C88.5152 249.072 88.8523 247.33 88.8523 245.307C88.8447 243.299 88.5114 241.572 87.8523 240.125C87.2008 238.678 86.2311 237.568 84.9432 236.795C83.6629 236.023 82.0795 235.636 80.1932 235.636H75.2159V255.091ZM102.543 257.364C100.914 257.364 99.5048 256.985 98.3155 256.227C97.1261 255.462 96.2056 254.405 95.5541 253.057C94.9101 251.701 94.5882 250.14 94.5882 248.375C94.5882 246.617 94.9101 245.057 95.5541 243.693C96.2056 242.322 97.1033 241.25 98.2473 240.477C99.3988 239.697 100.728 239.307 102.236 239.307C103.183 239.307 104.096 239.481 104.975 239.83C105.853 240.17 106.641 240.697 107.338 241.409C108.043 242.114 108.6 243.004 109.009 244.08C109.418 245.148 109.622 246.413 109.622 247.875V248.875H95.9859V247.091H107.554C107.554 245.97 107.327 244.962 106.872 244.068C106.425 243.167 105.8 242.455 104.997 241.932C104.202 241.409 103.281 241.148 102.236 241.148C101.13 241.148 100.156 241.443 99.3155 242.034C98.4745 242.625 97.8155 243.405 97.3382 244.375C96.8685 245.345 96.6298 246.405 96.6223 247.557V248.625C96.6223 250.011 96.8609 251.223 97.3382 252.261C97.823 253.292 98.5086 254.091 99.395 254.659C100.281 255.227 101.331 255.511 102.543 255.511C103.368 255.511 104.092 255.383 104.713 255.125C105.342 254.867 105.868 254.523 106.293 254.091C106.725 253.652 107.05 253.17 107.27 252.648L109.19 253.273C108.925 254.008 108.49 254.686 107.884 255.307C107.285 255.928 106.535 256.428 105.634 256.807C104.74 257.178 103.709 257.364 102.543 257.364ZM126.906 239.545L120.531 257H118.372L111.997 239.545H114.191L119.372 254.33H119.531L124.713 239.545H126.906ZM131.131 257V233.727H133.256V244.398H146.461V233.727H148.586V257H146.461V246.307H133.256V257H131.131ZM165.273 250.33V239.545H167.296V257H165.273V254.102H165.114C164.705 254.996 164.057 255.742 163.171 256.341C162.285 256.932 161.201 257.227 159.921 257.227C158.807 257.227 157.819 256.985 156.955 256.5C156.091 256.008 155.413 255.288 154.921 254.341C154.428 253.394 154.182 252.231 154.182 250.852V239.545H156.205V250.727C156.205 252.091 156.606 253.189 157.41 254.023C158.213 254.848 159.243 255.261 160.5 255.261C161.288 255.261 162.046 255.072 162.773 254.693C163.5 254.314 164.099 253.761 164.569 253.034C165.038 252.299 165.273 251.398 165.273 250.33ZM172.918 257V233.727H174.952V242.875H175.134C175.361 242.352 175.687 241.814 176.111 241.261C176.543 240.708 177.108 240.246 177.805 239.875C178.509 239.496 179.395 239.307 180.464 239.307C181.895 239.307 183.153 239.686 184.236 240.443C185.32 241.193 186.164 242.246 186.77 243.602C187.376 244.951 187.68 246.523 187.68 248.318C187.68 250.121 187.376 251.701 186.77 253.057C186.172 254.413 185.331 255.47 184.248 256.227C183.172 256.985 181.922 257.364 180.498 257.364C179.437 257.364 178.551 257.174 177.839 256.795C177.134 256.417 176.566 255.951 176.134 255.398C175.702 254.837 175.369 254.292 175.134 253.761H174.884V257H172.918ZM174.918 248.284C174.918 249.693 175.126 250.943 175.543 252.034C175.967 253.117 176.573 253.97 177.361 254.591C178.157 255.205 179.119 255.511 180.248 255.511C181.407 255.511 182.388 255.193 183.191 254.557C183.994 253.913 184.604 253.045 185.02 251.955C185.437 250.864 185.645 249.64 185.645 248.284C185.645 246.943 185.437 245.735 185.02 244.659C184.611 243.583 184.005 242.731 183.202 242.102C182.399 241.466 181.414 241.148 180.248 241.148C179.111 241.148 178.145 241.455 177.35 242.068C176.562 242.674 175.96 243.515 175.543 244.591C175.126 245.659 174.918 246.89 174.918 248.284ZM207.634 257.364C206.074 257.364 204.714 256.973 203.555 256.193C202.403 255.413 201.509 254.345 200.873 252.989C200.237 251.633 199.918 250.087 199.918 248.352C199.918 246.602 200.24 245.045 200.884 243.682C201.536 242.318 202.437 241.25 203.589 240.477C204.74 239.697 206.077 239.307 207.6 239.307C208.767 239.307 209.824 239.534 210.771 239.989C211.718 240.436 212.498 241.068 213.112 241.886C213.733 242.697 214.123 243.644 214.282 244.727H212.237C212.024 243.742 211.513 242.902 210.702 242.205C209.899 241.5 208.877 241.148 207.634 241.148C206.521 241.148 205.536 241.451 204.68 242.057C203.824 242.655 203.153 243.492 202.668 244.568C202.191 245.636 201.952 246.875 201.952 248.284C201.952 249.701 202.187 250.955 202.657 252.045C203.127 253.129 203.786 253.977 204.634 254.591C205.49 255.205 206.49 255.511 207.634 255.511C208.407 255.511 209.112 255.367 209.748 255.08C210.392 254.784 210.93 254.367 211.362 253.83C211.801 253.292 212.096 252.652 212.248 251.909H214.293C214.142 252.962 213.767 253.902 213.168 254.727C212.577 255.545 211.809 256.189 210.862 256.659C209.922 257.129 208.846 257.364 207.634 257.364ZM225.259 257.364C223.752 257.364 222.418 256.981 221.259 256.216C220.108 255.451 219.206 254.394 218.555 253.045C217.903 251.689 217.578 250.125 217.578 248.352C217.578 246.564 217.903 244.992 218.555 243.636C219.206 242.273 220.108 241.212 221.259 240.455C222.418 239.689 223.752 239.307 225.259 239.307C226.767 239.307 228.097 239.689 229.248 240.455C230.4 241.22 231.301 242.28 231.953 243.636C232.612 244.992 232.941 246.564 232.941 248.352C232.941 250.125 232.615 251.689 231.964 253.045C231.312 254.394 230.407 255.451 229.248 256.216C228.097 256.981 226.767 257.364 225.259 257.364ZM225.259 255.511C226.472 255.511 227.498 255.186 228.339 254.534C229.18 253.883 229.816 253.015 230.248 251.932C230.687 250.848 230.907 249.655 230.907 248.352C230.907 247.049 230.687 245.852 230.248 244.761C229.816 243.67 229.18 242.795 228.339 242.136C227.498 241.477 226.472 241.148 225.259 241.148C224.055 241.148 223.028 241.477 222.18 242.136C221.339 242.795 220.699 243.67 220.259 244.761C219.828 245.852 219.612 247.049 219.612 248.352C219.612 249.655 219.828 250.848 220.259 251.932C220.699 253.015 221.339 253.883 222.18 254.534C223.021 255.186 224.047 255.511 225.259 255.511ZM237.228 257V239.545H239.194V242.227H239.376C239.724 241.326 240.304 240.617 241.115 240.102C241.933 239.58 242.914 239.318 244.058 239.318C245.262 239.318 246.251 239.602 247.024 240.17C247.804 240.731 248.387 241.504 248.774 242.489H248.921C249.315 241.519 249.956 240.75 250.842 240.182C251.736 239.606 252.819 239.318 254.092 239.318C255.713 239.318 256.993 239.83 257.933 240.852C258.872 241.867 259.342 243.352 259.342 245.307V257H257.319V245.307C257.319 243.928 256.967 242.894 256.262 242.205C255.558 241.515 254.63 241.17 253.478 241.17C252.145 241.17 251.118 241.58 250.399 242.398C249.679 243.216 249.319 244.254 249.319 245.511V257H247.251V245.125C247.251 243.943 246.921 242.989 246.262 242.261C245.603 241.534 244.675 241.17 243.478 241.17C242.675 241.17 241.952 241.367 241.308 241.761C240.671 242.155 240.168 242.705 239.796 243.409C239.433 244.106 239.251 244.909 239.251 245.818V257H237.228ZM271.328 257.364C269.82 257.364 268.487 256.981 267.328 256.216C266.176 255.451 265.275 254.394 264.623 253.045C263.972 251.689 263.646 250.125 263.646 248.352C263.646 246.564 263.972 244.992 264.623 243.636C265.275 242.273 266.176 241.212 267.328 240.455C268.487 239.689 269.82 239.307 271.328 239.307C272.835 239.307 274.165 239.689 275.316 240.455C276.468 241.22 277.369 242.28 278.021 243.636C278.68 244.992 279.01 246.564 279.01 248.352C279.01 250.125 278.684 251.689 278.032 253.045C277.381 254.394 276.476 255.451 275.316 256.216C274.165 256.981 272.835 257.364 271.328 257.364ZM271.328 255.511C272.54 255.511 273.566 255.186 274.407 254.534C275.248 253.883 275.885 253.015 276.316 251.932C276.756 250.848 276.976 249.655 276.976 248.352C276.976 247.049 276.756 245.852 276.316 244.761C275.885 243.67 275.248 242.795 274.407 242.136C273.566 241.477 272.54 241.148 271.328 241.148C270.123 241.148 269.097 241.477 268.248 242.136C267.407 242.795 266.767 243.67 266.328 244.761C265.896 245.852 265.68 247.049 265.68 248.352C265.68 249.655 265.896 250.848 266.328 251.932C266.767 253.015 267.407 253.883 268.248 254.534C269.089 255.186 270.116 255.511 271.328 255.511ZM79.4545 298.364C77.947 298.364 76.6136 297.981 75.4545 297.216C74.303 296.451 73.4015 295.394 72.75 294.045C72.0985 292.689 71.7727 291.125 71.7727 289.352C71.7727 287.564 72.0985 285.992 72.75 284.636C73.4015 283.273 74.303 282.212 75.4545 281.455C76.6136 280.689 77.947 280.307 79.4545 280.307C80.9621 280.307 82.2917 280.689 83.4432 281.455C84.5947 282.22 85.4962 283.28 86.1477 284.636C86.8068 285.992 87.1364 287.564 87.1364 289.352C87.1364 291.125 86.8106 292.689 86.1591 294.045C85.5076 295.394 84.6023 296.451 83.4432 297.216C82.2917 297.981 80.9621 298.364 79.4545 298.364ZM79.4545 296.511C80.6667 296.511 81.6932 296.186 82.5341 295.534C83.375 294.883 84.0114 294.015 84.4432 292.932C84.8826 291.848 85.1023 290.655 85.1023 289.352C85.1023 288.049 84.8826 286.852 84.4432 285.761C84.0114 284.67 83.375 283.795 82.5341 283.136C81.6932 282.477 80.6667 282.148 79.4545 282.148C78.25 282.148 77.2235 282.477 76.375 283.136C75.5341 283.795 74.8939 284.67 74.4545 285.761C74.0227 286.852 73.8068 288.049 73.8068 289.352C73.8068 290.655 74.0227 291.848 74.4545 292.932C74.8939 294.015 75.5341 294.883 76.375 295.534C77.2159 296.186 78.2424 296.511 79.4545 296.511ZM100.27 298V280.545H102.236V283.227H102.418C102.766 282.326 103.346 281.617 104.156 281.102C104.975 280.58 105.956 280.318 107.1 280.318C108.304 280.318 109.293 280.602 110.066 281.17C110.846 281.731 111.429 282.504 111.816 283.489H111.963C112.357 282.519 112.997 281.75 113.884 281.182C114.778 280.606 115.861 280.318 117.134 280.318C118.755 280.318 120.035 280.83 120.975 281.852C121.914 282.867 122.384 284.352 122.384 286.307V298H120.361V286.307C120.361 284.928 120.009 283.894 119.304 283.205C118.6 282.515 117.672 282.17 116.52 282.17C115.187 282.17 114.16 282.58 113.441 283.398C112.721 284.216 112.361 285.254 112.361 286.511V298H110.293V286.125C110.293 284.943 109.963 283.989 109.304 283.261C108.645 282.534 107.717 282.17 106.52 282.17C105.717 282.17 104.994 282.367 104.35 282.761C103.713 283.155 103.209 283.705 102.838 284.409C102.475 285.106 102.293 285.909 102.293 286.818V298H100.27ZM134.642 298.364C133.014 298.364 131.604 297.985 130.415 297.227C129.226 296.462 128.305 295.405 127.654 294.057C127.01 292.701 126.688 291.14 126.688 289.375C126.688 287.617 127.01 286.057 127.654 284.693C128.305 283.322 129.203 282.25 130.347 281.477C131.498 280.697 132.828 280.307 134.336 280.307C135.283 280.307 136.195 280.481 137.074 280.83C137.953 281.17 138.741 281.697 139.438 282.409C140.142 283.114 140.699 284.004 141.108 285.08C141.517 286.148 141.722 287.413 141.722 288.875V289.875H128.086V288.091H139.654C139.654 286.97 139.426 285.962 138.972 285.068C138.525 284.167 137.9 283.455 137.097 282.932C136.301 282.409 135.381 282.148 134.336 282.148C133.229 282.148 132.256 282.443 131.415 283.034C130.574 283.625 129.915 284.405 129.438 285.375C128.968 286.345 128.729 287.405 128.722 288.557V289.625C128.722 291.011 128.961 292.223 129.438 293.261C129.923 294.292 130.608 295.091 131.495 295.659C132.381 296.227 133.43 296.511 134.642 296.511C135.468 296.511 136.192 296.383 136.813 296.125C137.442 295.867 137.968 295.523 138.392 295.091C138.824 294.652 139.15 294.17 139.37 293.648L141.29 294.273C141.025 295.008 140.589 295.686 139.983 296.307C139.385 296.928 138.635 297.428 137.733 297.807C136.839 298.178 135.809 298.364 134.642 298.364ZM148.049 274.727V298H146.026V274.727H148.049ZM155.27 287.091V298H153.248V274.727H155.27V283.284H155.452C155.861 282.383 156.494 281.663 157.35 281.125C158.214 280.587 159.305 280.318 160.623 280.318C161.805 280.318 162.842 280.561 163.736 281.045C164.63 281.53 165.327 282.246 165.827 283.193C166.327 284.14 166.577 285.307 166.577 286.693V298H164.543V286.818C164.543 285.379 164.142 284.246 163.339 283.42C162.543 282.587 161.467 282.17 160.111 282.17C159.18 282.17 158.35 282.367 157.623 282.761C156.895 283.155 156.32 283.723 155.895 284.466C155.479 285.201 155.27 286.076 155.27 287.091ZM178.535 298.364C177.027 298.364 175.694 297.981 174.535 297.216C173.383 296.451 172.482 295.394 171.83 294.045C171.179 292.689 170.853 291.125 170.853 289.352C170.853 287.564 171.179 285.992 171.83 284.636C172.482 283.273 173.383 282.212 174.535 281.455C175.694 280.689 177.027 280.307 178.535 280.307C180.042 280.307 181.372 280.689 182.523 281.455C183.675 282.22 184.576 283.28 185.228 284.636C185.887 285.992 186.217 287.564 186.217 289.352C186.217 291.125 185.891 292.689 185.239 294.045C184.588 295.394 183.682 296.451 182.523 297.216C181.372 297.981 180.042 298.364 178.535 298.364ZM178.535 296.511C179.747 296.511 180.773 296.186 181.614 295.534C182.455 294.883 183.092 294.015 183.523 292.932C183.963 291.848 184.182 290.655 184.182 289.352C184.182 288.049 183.963 286.852 183.523 285.761C183.092 284.67 182.455 283.795 181.614 283.136C180.773 282.477 179.747 282.148 178.535 282.148C177.33 282.148 176.304 282.477 175.455 283.136C174.614 283.795 173.974 284.67 173.535 285.761C173.103 286.852 172.887 288.049 172.887 289.352C172.887 290.655 173.103 291.848 173.535 292.932C173.974 294.015 174.614 294.883 175.455 295.534C176.296 296.186 177.323 296.511 178.535 296.511ZM190.504 298V280.545H192.47V283.227H192.617C192.966 282.348 193.572 281.64 194.435 281.102C195.307 280.557 196.291 280.284 197.39 280.284C197.557 280.284 197.742 280.288 197.947 280.295C198.151 280.303 198.322 280.311 198.458 280.318V282.375C198.367 282.36 198.208 282.337 197.981 282.307C197.754 282.277 197.507 282.261 197.242 282.261C196.333 282.261 195.523 282.455 194.81 282.841C194.106 283.22 193.549 283.746 193.14 284.42C192.731 285.095 192.526 285.864 192.526 286.727V298H190.504ZM222.331 284.375L220.478 284.898C220.296 284.375 220.039 283.902 219.706 283.477C219.372 283.053 218.937 282.716 218.399 282.466C217.868 282.216 217.209 282.091 216.421 282.091C215.24 282.091 214.27 282.371 213.512 282.932C212.755 283.492 212.376 284.216 212.376 285.102C212.376 285.852 212.634 286.462 213.149 286.932C213.671 287.394 214.474 287.761 215.558 288.034L218.194 288.682C219.656 289.038 220.751 289.602 221.478 290.375C222.213 291.148 222.581 292.117 222.581 293.284C222.581 294.269 222.308 295.144 221.762 295.909C221.217 296.674 220.456 297.277 219.478 297.716C218.509 298.148 217.384 298.364 216.103 298.364C214.399 298.364 212.993 297.981 211.887 297.216C210.781 296.443 210.073 295.33 209.762 293.875L211.706 293.398C211.956 294.436 212.444 295.22 213.171 295.75C213.906 296.28 214.872 296.545 216.069 296.545C217.41 296.545 218.482 296.246 219.285 295.648C220.088 295.042 220.49 294.284 220.49 293.375C220.49 292.67 220.255 292.08 219.785 291.602C219.315 291.117 218.603 290.761 217.649 290.534L214.796 289.852C213.281 289.489 212.16 288.913 211.433 288.125C210.706 287.337 210.342 286.36 210.342 285.193C210.342 284.231 210.603 283.386 211.126 282.659C211.649 281.924 212.368 281.348 213.285 280.932C214.202 280.515 215.247 280.307 216.421 280.307C218.02 280.307 219.296 280.67 220.251 281.398C221.213 282.117 221.906 283.11 222.331 284.375ZM226.879 298V280.545H228.913V298H226.879ZM227.913 277.545C227.496 277.545 227.14 277.405 226.845 277.125C226.549 276.837 226.402 276.492 226.402 276.091C226.402 275.689 226.549 275.348 226.845 275.068C227.14 274.78 227.496 274.636 227.913 274.636C228.33 274.636 228.686 274.78 228.981 275.068C229.277 275.348 229.424 275.689 229.424 276.091C229.424 276.492 229.277 276.837 228.981 277.125C228.686 277.405 228.33 277.545 227.913 277.545ZM240.984 280.545V282.307H232.655V280.545H240.984ZM235.257 276.364H237.291V293.443C237.291 294.17 237.416 294.742 237.666 295.159C237.916 295.568 238.242 295.86 238.643 296.034C239.045 296.201 239.473 296.284 239.927 296.284C240.192 296.284 240.42 296.269 240.609 296.239C240.799 296.201 240.965 296.163 241.109 296.125L241.541 297.955C241.344 298.03 241.102 298.098 240.814 298.159C240.526 298.227 240.17 298.261 239.746 298.261C239.003 298.261 238.287 298.098 237.598 297.773C236.916 297.447 236.355 296.962 235.916 296.318C235.477 295.674 235.257 294.875 235.257 293.92V276.364ZM252.294 298.364C250.665 298.364 249.256 297.985 248.067 297.227C246.877 296.462 245.957 295.405 245.305 294.057C244.661 292.701 244.339 291.14 244.339 289.375C244.339 287.617 244.661 286.057 245.305 284.693C245.957 283.322 246.855 282.25 247.998 281.477C249.15 280.697 250.48 280.307 251.987 280.307C252.934 280.307 253.847 280.481 254.726 280.83C255.605 281.17 256.392 281.697 257.089 282.409C257.794 283.114 258.351 284.004 258.76 285.08C259.169 286.148 259.373 287.413 259.373 288.875V289.875H245.737V288.091H257.305C257.305 286.97 257.078 285.962 256.623 285.068C256.176 284.167 255.551 283.455 254.748 282.932C253.953 282.409 253.033 282.148 251.987 282.148C250.881 282.148 249.908 282.443 249.067 283.034C248.226 283.625 247.567 284.405 247.089 285.375C246.62 286.345 246.381 287.405 246.373 288.557V289.625C246.373 291.011 246.612 292.223 247.089 293.261C247.574 294.292 248.26 295.091 249.146 295.659C250.033 296.227 251.082 296.511 252.294 296.511C253.12 296.511 253.843 296.383 254.464 296.125C255.093 295.867 255.62 295.523 256.044 295.091C256.476 294.652 256.801 294.17 257.021 293.648L258.942 294.273C258.676 295.008 258.241 295.686 257.635 296.307C257.036 296.928 256.286 297.428 255.385 297.807C254.491 298.178 253.461 298.364 252.294 298.364ZM79.7273 339.364C78.0985 339.364 76.6894 338.985 75.5 338.227C74.3106 337.462 73.3902 336.405 72.7386 335.057C72.0947 333.701 71.7727 332.14 71.7727 330.375C71.7727 328.617 72.0947 327.057 72.7386 325.693C73.3902 324.322 74.2879 323.25 75.4318 322.477C76.5833 321.697 77.9129 321.307 79.4205 321.307C80.3674 321.307 81.2803 321.481 82.1591 321.83C83.0379 322.17 83.8258 322.697 84.5227 323.409C85.2273 324.114 85.7841 325.004 86.1932 326.08C86.6023 327.148 86.8068 328.413 86.8068 329.875V330.875H73.1705V329.091H84.7386C84.7386 327.97 84.5114 326.962 84.0568 326.068C83.6098 325.167 82.9848 324.455 82.1818 323.932C81.3864 323.409 80.4659 323.148 79.4205 323.148C78.3144 323.148 77.3409 323.443 76.5 324.034C75.6591 324.625 75 325.405 74.5227 326.375C74.053 327.345 73.8144 328.405 73.8068 329.557V330.625C73.8068 332.011 74.0455 333.223 74.5227 334.261C75.0076 335.292 75.6932 336.091 76.5795 336.659C77.4659 337.227 78.5152 337.511 79.7273 337.511C80.553 337.511 81.2765 337.383 81.8977 337.125C82.5265 336.867 83.053 336.523 83.4773 336.091C83.9091 335.652 84.2348 335.17 84.4545 334.648L86.375 335.273C86.1098 336.008 85.6742 336.686 85.0682 337.307C84.4697 337.928 83.7197 338.428 82.8182 338.807C81.9242 339.178 80.8939 339.364 79.7273 339.364ZM91.1109 339V321.545H93.0768V324.227H93.2586C93.6071 323.326 94.1867 322.617 94.9973 322.102C95.8155 321.58 96.7965 321.318 97.9405 321.318C99.145 321.318 100.134 321.602 100.906 322.17C101.687 322.731 102.27 323.504 102.656 324.489H102.804C103.198 323.519 103.838 322.75 104.725 322.182C105.618 321.606 106.702 321.318 107.975 321.318C109.596 321.318 110.876 321.83 111.815 322.852C112.755 323.867 113.225 325.352 113.225 327.307V339H111.202V327.307C111.202 325.928 110.85 324.894 110.145 324.205C109.44 323.515 108.512 323.17 107.361 323.17C106.028 323.17 105.001 323.58 104.281 324.398C103.562 325.216 103.202 326.254 103.202 327.511V339H101.134V327.125C101.134 325.943 100.804 324.989 100.145 324.261C99.4859 323.534 98.5579 323.17 97.3609 323.17C96.5579 323.17 95.8344 323.367 95.1905 323.761C94.5541 324.155 94.0503 324.705 93.6791 325.409C93.3155 326.106 93.1336 326.909 93.1336 327.818V339H91.1109ZM118.426 345.545V321.545H120.392V324.875H120.631C120.873 324.352 121.207 323.818 121.631 323.273C122.055 322.72 122.616 322.254 123.313 321.875C124.017 321.496 124.904 321.307 125.972 321.307C127.411 321.307 128.669 321.686 129.745 322.443C130.828 323.193 131.669 324.246 132.267 325.602C132.873 326.951 133.176 328.523 133.176 330.318C133.176 332.121 132.873 333.701 132.267 335.057C131.669 336.413 130.828 337.47 129.745 338.227C128.669 338.985 127.419 339.364 125.995 339.364C124.942 339.364 124.059 339.174 123.347 338.795C122.642 338.417 122.07 337.951 121.631 337.398C121.199 336.837 120.866 336.292 120.631 335.761H120.449V345.545H118.426ZM120.426 330.284C120.426 331.693 120.635 332.943 121.051 334.034C121.476 335.117 122.082 335.97 122.87 336.591C123.665 337.205 124.627 337.511 125.756 337.511C126.915 337.511 127.892 337.193 128.688 336.557C129.491 335.913 130.101 335.045 130.517 333.955C130.942 332.864 131.154 331.64 131.154 330.284C131.154 328.943 130.945 327.735 130.529 326.659C130.12 325.583 129.513 324.731 128.71 324.102C127.907 323.466 126.923 323.148 125.756 323.148C124.62 323.148 123.654 323.455 122.858 324.068C122.063 324.674 121.457 325.515 121.04 326.591C120.631 327.659 120.426 328.89 120.426 330.284ZM137.461 339V321.545H139.426V324.227H139.574C139.923 323.348 140.529 322.64 141.392 322.102C142.264 321.557 143.248 321.284 144.347 321.284C144.514 321.284 144.699 321.288 144.904 321.295C145.108 321.303 145.279 321.311 145.415 321.318V323.375C145.324 323.36 145.165 323.337 144.938 323.307C144.711 323.277 144.464 323.261 144.199 323.261C143.29 323.261 142.479 323.455 141.767 323.841C141.063 324.22 140.506 324.746 140.097 325.42C139.688 326.095 139.483 326.864 139.483 327.727V339H137.461ZM155.239 339.364C153.61 339.364 152.201 338.985 151.012 338.227C149.822 337.462 148.902 336.405 148.25 335.057C147.606 333.701 147.285 332.14 147.285 330.375C147.285 328.617 147.606 327.057 148.25 325.693C148.902 324.322 149.8 323.25 150.944 322.477C152.095 321.697 153.425 321.307 154.932 321.307C155.879 321.307 156.792 321.481 157.671 321.83C158.55 322.17 159.338 322.697 160.035 323.409C160.739 324.114 161.296 325.004 161.705 326.08C162.114 327.148 162.319 328.413 162.319 329.875V330.875H148.682V329.091H160.25C160.25 327.97 160.023 326.962 159.569 326.068C159.122 325.167 158.497 324.455 157.694 323.932C156.898 323.409 155.978 323.148 154.932 323.148C153.826 323.148 152.853 323.443 152.012 324.034C151.171 324.625 150.512 325.405 150.035 326.375C149.565 327.345 149.326 328.405 149.319 329.557V330.625C149.319 332.011 149.557 333.223 150.035 334.261C150.519 335.292 151.205 336.091 152.091 336.659C152.978 337.227 154.027 337.511 155.239 337.511C156.065 337.511 156.788 337.383 157.41 337.125C158.038 336.867 158.565 336.523 158.989 336.091C159.421 335.652 159.747 335.17 159.966 334.648L161.887 335.273C161.622 336.008 161.186 336.686 160.58 337.307C159.981 337.928 159.231 338.428 158.33 338.807C157.436 339.178 156.406 339.364 155.239 339.364ZM173.282 345.909C172.092 345.909 171.051 345.754 170.157 345.443C169.263 345.14 168.509 344.723 167.895 344.193C167.282 343.663 166.805 343.068 166.464 342.409L168.123 341.318C168.373 341.758 168.706 342.189 169.123 342.614C169.547 343.038 170.096 343.39 170.77 343.67C171.452 343.951 172.289 344.091 173.282 344.091C174.827 344.091 176.073 343.705 177.02 342.932C177.975 342.159 178.452 340.958 178.452 339.33V335.398H178.27C178.036 335.928 177.698 336.458 177.259 336.989C176.82 337.511 176.244 337.947 175.532 338.295C174.827 338.644 173.952 338.818 172.907 338.818C171.513 338.818 170.274 338.473 169.191 337.784C168.115 337.095 167.267 336.11 166.645 334.83C166.032 333.542 165.725 332.008 165.725 330.227C165.725 328.462 166.024 326.909 166.623 325.568C167.229 324.227 168.073 323.182 169.157 322.432C170.24 321.682 171.501 321.307 172.941 321.307C174.009 321.307 174.895 321.496 175.6 321.875C176.305 322.246 176.869 322.708 177.293 323.261C177.725 323.814 178.062 324.352 178.305 324.875H178.509V321.545H180.486V339.455C180.486 340.932 180.172 342.148 179.543 343.102C178.914 344.057 178.058 344.761 176.975 345.216C175.892 345.678 174.661 345.909 173.282 345.909ZM173.145 336.966C174.267 336.966 175.225 336.697 176.02 336.159C176.816 335.614 177.426 334.833 177.85 333.818C178.274 332.803 178.486 331.595 178.486 330.193C178.486 328.83 178.278 327.621 177.861 326.568C177.445 325.508 176.839 324.674 176.043 324.068C175.255 323.455 174.289 323.148 173.145 323.148C171.979 323.148 170.994 323.462 170.191 324.091C169.388 324.72 168.782 325.568 168.373 326.636C167.964 327.697 167.759 328.883 167.759 330.193C167.759 331.527 167.967 332.705 168.384 333.727C168.801 334.742 169.411 335.538 170.214 336.114C171.017 336.682 171.994 336.966 173.145 336.966ZM192.472 339.364C190.965 339.364 189.631 338.981 188.472 338.216C187.321 337.451 186.419 336.394 185.768 335.045C185.116 333.689 184.79 332.125 184.79 330.352C184.79 328.564 185.116 326.992 185.768 325.636C186.419 324.273 187.321 323.212 188.472 322.455C189.631 321.689 190.965 321.307 192.472 321.307C193.98 321.307 195.309 321.689 196.461 322.455C197.612 323.22 198.514 324.28 199.165 325.636C199.825 326.992 200.154 328.564 200.154 330.352C200.154 332.125 199.828 333.689 199.177 335.045C198.525 336.394 197.62 337.451 196.461 338.216C195.309 338.981 193.98 339.364 192.472 339.364ZM192.472 337.511C193.684 337.511 194.711 337.186 195.552 336.534C196.393 335.883 197.029 335.015 197.461 333.932C197.9 332.848 198.12 331.655 198.12 330.352C198.12 329.049 197.9 327.852 197.461 326.761C197.029 325.67 196.393 324.795 195.552 324.136C194.711 323.477 193.684 323.148 192.472 323.148C191.268 323.148 190.241 323.477 189.393 324.136C188.552 324.795 187.912 325.67 187.472 326.761C187.04 327.852 186.825 329.049 186.825 330.352C186.825 331.655 187.04 332.848 187.472 333.932C187.912 335.015 188.552 335.883 189.393 336.534C190.234 337.186 191.26 337.511 192.472 337.511ZM72.6932 379V361.545H74.7273V379H72.6932ZM73.7273 358.545C73.3106 358.545 72.9545 358.405 72.6591 358.125C72.3636 357.837 72.2159 357.492 72.2159 357.091C72.2159 356.689 72.3636 356.348 72.6591 356.068C72.9545 355.78 73.3106 355.636 73.7273 355.636C74.1439 355.636 74.5 355.78 74.7955 356.068C75.0909 356.348 75.2386 356.689 75.2386 357.091C75.2386 357.492 75.0909 357.837 74.7955 358.125C74.5 358.405 74.1439 358.545 73.7273 358.545ZM81.9461 368.091V379H79.9234V361.545H81.8893V364.284H82.0711C82.4802 363.39 83.1166 362.674 83.9802 362.136C84.8514 361.591 85.9272 361.318 87.2075 361.318C88.3817 361.318 89.412 361.564 90.2984 362.057C91.1923 362.542 91.8855 363.258 92.378 364.205C92.878 365.152 93.128 366.314 93.128 367.693V379H91.1052V367.818C91.1052 366.386 90.7037 365.254 89.9007 364.42C89.1052 363.587 88.037 363.17 86.6961 363.17C85.7795 363.17 84.9651 363.367 84.253 363.761C83.5408 364.155 82.9764 364.723 82.5598 365.466C82.1507 366.201 81.9461 367.076 81.9461 368.091ZM105.483 361.545V363.307H96.9036V361.545H105.483ZM99.5854 379V358.989C99.5854 358.049 99.8014 357.258 100.233 356.614C100.673 355.97 101.245 355.481 101.949 355.148C102.654 354.814 103.4 354.648 104.188 354.648C104.718 354.648 105.157 354.693 105.506 354.784C105.862 354.867 106.142 354.951 106.347 355.034L105.756 356.807C105.604 356.761 105.419 356.708 105.199 356.648C104.979 356.587 104.703 356.557 104.37 356.557C103.491 356.557 102.813 356.803 102.335 357.295C101.858 357.788 101.62 358.492 101.62 359.409L101.608 379H99.5854ZM109.367 379V361.545H111.333V364.227H111.48C111.829 363.348 112.435 362.64 113.299 362.102C114.17 361.557 115.155 361.284 116.253 361.284C116.42 361.284 116.605 361.288 116.81 361.295C117.015 361.303 117.185 361.311 117.321 361.318V363.375C117.23 363.36 117.071 363.337 116.844 363.307C116.617 363.277 116.371 363.261 116.105 363.261C115.196 363.261 114.386 363.455 113.674 363.841C112.969 364.22 112.412 364.746 112.003 365.42C111.594 366.095 111.39 366.864 111.39 367.727V379H109.367ZM120.62 379V361.545H122.586V364.227H122.767C123.116 363.326 123.696 362.617 124.506 362.102C125.324 361.58 126.305 361.318 127.449 361.318C128.654 361.318 129.642 361.602 130.415 362.17C131.196 362.731 131.779 363.504 132.165 364.489H132.313C132.707 363.519 133.347 362.75 134.233 362.182C135.127 361.606 136.211 361.318 137.483 361.318C139.105 361.318 140.385 361.83 141.324 362.852C142.264 363.867 142.733 365.352 142.733 367.307V379H140.711V367.307C140.711 365.928 140.358 364.894 139.654 364.205C138.949 363.515 138.021 363.17 136.87 363.17C135.536 363.17 134.51 363.58 133.79 364.398C133.071 365.216 132.711 366.254 132.711 367.511V379H130.642V367.125C130.642 365.943 130.313 364.989 129.654 364.261C128.995 363.534 128.067 363.17 126.87 363.17C126.067 363.17 125.343 363.367 124.699 363.761C124.063 364.155 123.559 364.705 123.188 365.409C122.824 366.106 122.642 366.909 122.642 367.818V379H120.62ZM152.81 379.398C151.757 379.398 150.795 379.193 149.924 378.784C149.053 378.367 148.359 377.769 147.844 376.989C147.329 376.201 147.072 375.246 147.072 374.125C147.072 373.261 147.234 372.534 147.56 371.943C147.886 371.352 148.348 370.867 148.947 370.489C149.545 370.11 150.253 369.811 151.072 369.591C151.89 369.371 152.791 369.201 153.776 369.08C154.753 368.958 155.579 368.852 156.253 368.761C156.935 368.67 157.454 368.527 157.81 368.33C158.166 368.133 158.344 367.814 158.344 367.375V366.966C158.344 365.777 157.988 364.841 157.276 364.159C156.572 363.47 155.556 363.125 154.231 363.125C152.973 363.125 151.947 363.402 151.151 363.955C150.363 364.508 149.81 365.159 149.492 365.909L147.572 365.216C147.966 364.261 148.511 363.5 149.208 362.932C149.905 362.356 150.685 361.943 151.549 361.693C152.412 361.436 153.287 361.307 154.174 361.307C154.841 361.307 155.534 361.394 156.253 361.568C156.981 361.742 157.655 362.045 158.276 362.477C158.897 362.902 159.401 363.496 159.787 364.261C160.174 365.019 160.367 365.981 160.367 367.148V379H158.344V376.239H158.219C157.977 376.754 157.617 377.254 157.14 377.739C156.662 378.223 156.064 378.621 155.344 378.932C154.625 379.242 153.78 379.398 152.81 379.398ZM153.083 377.545C154.159 377.545 155.091 377.307 155.878 376.83C156.666 376.352 157.272 375.72 157.697 374.932C158.128 374.136 158.344 373.261 158.344 372.307V369.784C158.193 369.928 157.939 370.057 157.583 370.17C157.234 370.284 156.829 370.386 156.367 370.477C155.912 370.561 155.458 370.633 155.003 370.693C154.549 370.754 154.14 370.807 153.776 370.852C152.791 370.973 151.95 371.163 151.253 371.42C150.556 371.678 150.022 372.034 149.651 372.489C149.28 372.936 149.094 373.511 149.094 374.216C149.094 375.277 149.473 376.098 150.231 376.682C150.988 377.258 151.939 377.545 153.083 377.545ZM167.617 355.727V379H165.594V355.727H167.617ZM187.947 379.364C186.515 379.364 185.261 378.985 184.186 378.227C183.11 377.47 182.269 376.413 181.663 375.057C181.064 373.701 180.765 372.121 180.765 370.318C180.765 368.523 181.064 366.951 181.663 365.602C182.269 364.246 183.114 363.193 184.197 362.443C185.28 361.686 186.542 361.307 187.981 361.307C189.042 361.307 189.924 361.496 190.629 361.875C191.333 362.246 191.898 362.708 192.322 363.261C192.746 363.814 193.076 364.352 193.311 364.875H193.492V355.727H195.526V379H193.549V375.761H193.311C193.076 376.292 192.742 376.837 192.311 377.398C191.879 377.951 191.307 378.417 190.595 378.795C189.89 379.174 189.007 379.364 187.947 379.364ZM188.186 377.511C189.314 377.511 190.276 377.205 191.072 376.591C191.867 375.97 192.473 375.117 192.89 374.034C193.314 372.943 193.526 371.693 193.526 370.284C193.526 368.89 193.318 367.659 192.901 366.591C192.485 365.515 191.879 364.674 191.083 364.068C190.288 363.455 189.322 363.148 188.186 363.148C187.019 363.148 186.034 363.466 185.231 364.102C184.436 364.731 183.829 365.583 183.413 366.659C183.004 367.735 182.799 368.943 182.799 370.284C182.799 371.64 183.007 372.864 183.424 373.955C183.841 375.045 184.447 375.913 185.242 376.557C186.045 377.193 187.026 377.511 188.186 377.511ZM207.919 379.364C206.411 379.364 205.078 378.981 203.919 378.216C202.767 377.451 201.866 376.394 201.214 375.045C200.563 373.689 200.237 372.125 200.237 370.352C200.237 368.564 200.563 366.992 201.214 365.636C201.866 364.273 202.767 363.212 203.919 362.455C205.078 361.689 206.411 361.307 207.919 361.307C209.426 361.307 210.756 361.689 211.907 362.455C213.059 363.22 213.96 364.28 214.612 365.636C215.271 366.992 215.6 368.564 215.6 370.352C215.6 372.125 215.275 373.689 214.623 375.045C213.972 376.394 213.066 377.451 211.907 378.216C210.756 378.981 209.426 379.364 207.919 379.364ZM207.919 377.511C209.131 377.511 210.157 377.186 210.998 376.534C211.839 375.883 212.475 375.015 212.907 373.932C213.347 372.848 213.566 371.655 213.566 370.352C213.566 369.049 213.347 367.852 212.907 366.761C212.475 365.67 211.839 364.795 210.998 364.136C210.157 363.477 209.131 363.148 207.919 363.148C206.714 363.148 205.688 363.477 204.839 364.136C203.998 364.795 203.358 365.67 202.919 366.761C202.487 367.852 202.271 369.049 202.271 370.352C202.271 371.655 202.487 372.848 202.919 373.932C203.358 375.015 203.998 375.883 204.839 376.534C205.68 377.186 206.706 377.511 207.919 377.511ZM72.6705 420V402.545H74.6364V405.227H74.8182C75.1667 404.326 75.7462 403.617 76.5568 403.102C77.375 402.58 78.3561 402.318 79.5 402.318C80.7045 402.318 81.6932 402.602 82.4659 403.17C83.2462 403.731 83.8295 404.504 84.2159 405.489H84.3636C84.7576 404.519 85.3977 403.75 86.2841 403.182C87.178 402.606 88.2614 402.318 89.5341 402.318C91.1553 402.318 92.4356 402.83 93.375 403.852C94.3144 404.867 94.7841 406.352 94.7841 408.307V420H92.7614V408.307C92.7614 406.928 92.4091 405.894 91.7045 405.205C91 404.515 90.072 404.17 88.9205 404.17C87.5871 404.17 86.5606 404.58 85.8409 405.398C85.1212 406.216 84.7614 407.254 84.7614 408.511V420H82.6932V408.125C82.6932 406.943 82.3636 405.989 81.7045 405.261C81.0455 404.534 80.1174 404.17 78.9205 404.17C78.1174 404.17 77.3939 404.367 76.75 404.761C76.1136 405.155 75.6098 405.705 75.2386 406.409C74.875 407.106 74.6932 407.909 74.6932 408.818V420H72.6705ZM111.077 413.33V402.545H113.1V420H111.077V417.102H110.918C110.509 417.996 109.861 418.742 108.975 419.341C108.088 419.932 107.005 420.227 105.725 420.227C104.611 420.227 103.622 419.985 102.759 419.5C101.895 419.008 101.217 418.288 100.725 417.341C100.232 416.394 99.9859 415.231 99.9859 413.852V402.545H102.009V413.727C102.009 415.091 102.41 416.189 103.213 417.023C104.016 417.848 105.047 418.261 106.304 418.261C107.092 418.261 107.85 418.072 108.577 417.693C109.304 417.314 109.903 416.761 110.372 416.034C110.842 415.299 111.077 414.398 111.077 413.33ZM120.324 409.091V420H118.301V402.545H120.267V405.284H120.449C120.858 404.39 121.495 403.674 122.358 403.136C123.229 402.591 124.305 402.318 125.585 402.318C126.76 402.318 127.79 402.564 128.676 403.057C129.57 403.542 130.263 404.258 130.756 405.205C131.256 406.152 131.506 407.314 131.506 408.693V420H129.483V408.818C129.483 407.386 129.082 406.254 128.279 405.42C127.483 404.587 126.415 404.17 125.074 404.17C124.157 404.17 123.343 404.367 122.631 404.761C121.919 405.155 121.354 405.723 120.938 406.466C120.529 407.201 120.324 408.076 120.324 409.091ZM142.963 420.364C141.532 420.364 140.278 419.985 139.202 419.227C138.126 418.47 137.285 417.413 136.679 416.057C136.081 414.701 135.782 413.121 135.782 411.318C135.782 409.523 136.081 407.951 136.679 406.602C137.285 405.246 138.13 404.193 139.213 403.443C140.297 402.686 141.558 402.307 142.997 402.307C144.058 402.307 144.941 402.496 145.645 402.875C146.35 403.246 146.914 403.708 147.338 404.261C147.763 404.814 148.092 405.352 148.327 405.875H148.509V396.727H150.543V420H148.566V416.761H148.327C148.092 417.292 147.759 417.837 147.327 418.398C146.895 418.951 146.323 419.417 145.611 419.795C144.907 420.174 144.024 420.364 142.963 420.364ZM143.202 418.511C144.331 418.511 145.293 418.205 146.088 417.591C146.884 416.97 147.49 416.117 147.907 415.034C148.331 413.943 148.543 412.693 148.543 411.284C148.543 409.89 148.335 408.659 147.918 407.591C147.501 406.515 146.895 405.674 146.1 405.068C145.304 404.455 144.338 404.148 143.202 404.148C142.035 404.148 141.051 404.466 140.247 405.102C139.452 405.731 138.846 406.583 138.429 407.659C138.02 408.735 137.816 409.943 137.816 411.284C137.816 412.64 138.024 413.864 138.441 414.955C138.857 416.045 139.463 416.913 140.259 417.557C141.062 418.193 142.043 418.511 143.202 418.511ZM162.935 420.364C161.428 420.364 160.094 419.981 158.935 419.216C157.784 418.451 156.882 417.394 156.231 416.045C155.579 414.689 155.253 413.125 155.253 411.352C155.253 409.564 155.579 407.992 156.231 406.636C156.882 405.273 157.784 404.212 158.935 403.455C160.094 402.689 161.428 402.307 162.935 402.307C164.443 402.307 165.772 402.689 166.924 403.455C168.075 404.22 168.977 405.28 169.628 406.636C170.287 407.992 170.617 409.564 170.617 411.352C170.617 413.125 170.291 414.689 169.64 416.045C168.988 417.394 168.083 418.451 166.924 419.216C165.772 419.981 164.443 420.364 162.935 420.364ZM162.935 418.511C164.147 418.511 165.174 418.186 166.015 417.534C166.856 416.883 167.492 416.015 167.924 414.932C168.363 413.848 168.583 412.655 168.583 411.352C168.583 410.049 168.363 408.852 167.924 407.761C167.492 406.67 166.856 405.795 166.015 405.136C165.174 404.477 164.147 404.148 162.935 404.148C161.731 404.148 160.704 404.477 159.856 405.136C159.015 405.795 158.374 406.67 157.935 407.761C157.503 408.852 157.287 410.049 157.287 411.352C157.287 412.655 157.503 413.848 157.935 414.932C158.374 416.015 159.015 416.883 159.856 417.534C160.696 418.186 161.723 418.511 162.935 418.511ZM190.807 420.364C189.179 420.364 187.77 419.985 186.58 419.227C185.391 418.462 184.47 417.405 183.819 416.057C183.175 414.701 182.853 413.14 182.853 411.375C182.853 409.617 183.175 408.057 183.819 406.693C184.47 405.322 185.368 404.25 186.512 403.477C187.664 402.697 188.993 402.307 190.501 402.307C191.448 402.307 192.361 402.481 193.239 402.83C194.118 403.17 194.906 403.697 195.603 404.409C196.307 405.114 196.864 406.004 197.273 407.08C197.682 408.148 197.887 409.413 197.887 410.875V411.875H184.251V410.091H195.819C195.819 408.97 195.592 407.962 195.137 407.068C194.69 406.167 194.065 405.455 193.262 404.932C192.467 404.409 191.546 404.148 190.501 404.148C189.395 404.148 188.421 404.443 187.58 405.034C186.739 405.625 186.08 406.405 185.603 407.375C185.133 408.345 184.895 409.405 184.887 410.557V411.625C184.887 413.011 185.126 414.223 185.603 415.261C186.088 416.292 186.773 417.091 187.66 417.659C188.546 418.227 189.595 418.511 190.807 418.511C191.633 418.511 192.357 418.383 192.978 418.125C193.607 417.867 194.133 417.523 194.557 417.091C194.989 416.652 195.315 416.17 195.535 415.648L197.455 416.273C197.19 417.008 196.754 417.686 196.148 418.307C195.55 418.928 194.8 419.428 193.898 419.807C193.004 420.178 191.974 420.364 190.807 420.364ZM202.191 420V402.545H204.157V405.227H204.339C204.687 404.326 205.267 403.617 206.077 403.102C206.896 402.58 207.877 402.318 209.021 402.318C210.225 402.318 211.214 402.602 211.987 403.17C212.767 403.731 213.35 404.504 213.737 405.489H213.884C214.278 404.519 214.918 403.75 215.805 403.182C216.699 402.606 217.782 402.318 219.055 402.318C220.676 402.318 221.956 402.83 222.896 403.852C223.835 404.867 224.305 406.352 224.305 408.307V420H222.282V408.307C222.282 406.928 221.93 405.894 221.225 405.205C220.521 404.515 219.593 404.17 218.441 404.17C217.108 404.17 216.081 404.58 215.362 405.398C214.642 406.216 214.282 407.254 214.282 408.511V420H212.214V408.125C212.214 406.943 211.884 405.989 211.225 405.261C210.566 404.534 209.638 404.17 208.441 404.17C207.638 404.17 206.915 404.367 206.271 404.761C205.634 405.155 205.13 405.705 204.759 406.409C204.396 407.106 204.214 407.909 204.214 408.818V420H202.191ZM72.5909 461V459.443L80.1932 450.898C81.1856 449.777 81.9848 448.818 82.5909 448.023C83.197 447.227 83.6364 446.492 83.9091 445.818C84.1894 445.144 84.3295 444.443 84.3295 443.716C84.3295 442.83 84.1212 442.057 83.7045 441.398C83.2955 440.731 82.7311 440.212 82.0114 439.841C81.2917 439.47 80.4811 439.284 79.5795 439.284C78.625 439.284 77.7879 439.489 77.0682 439.898C76.3561 440.307 75.803 440.867 75.4091 441.58C75.0152 442.292 74.8182 443.11 74.8182 444.034H72.7841C72.7841 442.746 73.0795 441.606 73.6705 440.614C74.2689 439.614 75.0833 438.83 76.1136 438.261C77.1515 437.693 78.3258 437.409 79.6364 437.409C80.9318 437.409 82.0833 437.689 83.0909 438.25C84.0985 438.803 84.8902 439.557 85.4659 440.511C86.0417 441.466 86.3295 442.534 86.3295 443.716C86.3295 444.572 86.178 445.402 85.875 446.205C85.5795 447.008 85.0682 447.902 84.3409 448.886C83.6136 449.871 82.6061 451.076 81.3182 452.5L75.5455 458.943V459.091H87.0568V461H72.5909ZM99.1961 461.318C97.5598 461.318 96.162 460.848 95.003 459.909C93.8514 458.962 92.9651 457.595 92.3439 455.807C91.7302 454.019 91.4234 451.871 91.4234 449.364C91.4234 446.864 91.7302 444.723 92.3439 442.943C92.9651 441.155 93.8552 439.788 95.0143 438.841C96.181 437.886 97.5749 437.409 99.1961 437.409C100.817 437.409 102.207 437.886 103.367 438.841C104.533 439.788 105.423 441.155 106.037 442.943C106.658 444.723 106.969 446.864 106.969 449.364C106.969 451.871 106.658 454.019 106.037 455.807C105.423 457.595 104.537 458.962 103.378 459.909C102.226 460.848 100.832 461.318 99.1961 461.318ZM99.1961 459.409C100.992 459.409 102.393 458.534 103.401 456.784C104.408 455.027 104.912 452.553 104.912 449.364C104.912 447.242 104.681 445.432 104.219 443.932C103.764 442.424 103.109 441.273 102.253 440.477C101.404 439.682 100.386 439.284 99.1961 439.284C97.4158 439.284 96.0181 440.17 95.003 441.943C93.9878 443.708 93.4802 446.182 93.4802 449.364C93.4802 451.485 93.7075 453.295 94.162 454.795C94.6242 456.295 95.2795 457.439 96.128 458.227C96.984 459.015 98.0067 459.409 99.1961 459.409ZM111.441 461V459.443L119.043 450.898C120.035 449.777 120.835 448.818 121.441 448.023C122.047 447.227 122.486 446.492 122.759 445.818C123.039 445.144 123.179 444.443 123.179 443.716C123.179 442.83 122.971 442.057 122.554 441.398C122.145 440.731 121.581 440.212 120.861 439.841C120.141 439.47 119.331 439.284 118.429 439.284C117.475 439.284 116.638 439.489 115.918 439.898C115.206 440.307 114.653 440.867 114.259 441.58C113.865 442.292 113.668 443.11 113.668 444.034H111.634C111.634 442.746 111.929 441.606 112.52 440.614C113.119 439.614 113.933 438.83 114.963 438.261C116.001 437.693 117.175 437.409 118.486 437.409C119.781 437.409 120.933 437.689 121.941 438.25C122.948 438.803 123.74 439.557 124.316 440.511C124.891 441.466 125.179 442.534 125.179 443.716C125.179 444.572 125.028 445.402 124.725 446.205C124.429 447.008 123.918 447.902 123.191 448.886C122.463 449.871 121.456 451.076 120.168 452.5L114.395 458.943V459.091H125.906V461H111.441ZM138.375 461.318C136.944 461.318 135.663 461.061 134.534 460.545C133.406 460.023 132.512 459.299 131.853 458.375C131.194 457.451 130.845 456.386 130.807 455.182H132.955C132.993 456.03 133.254 456.773 133.739 457.409C134.224 458.038 134.868 458.53 135.671 458.886C136.474 459.235 137.368 459.409 138.353 459.409C139.428 459.409 140.375 459.208 141.194 458.807C142.019 458.405 142.663 457.856 143.125 457.159C143.595 456.455 143.83 455.659 143.83 454.773C143.83 453.833 143.591 453.004 143.114 452.284C142.637 451.564 141.951 451.004 141.057 450.602C140.171 450.201 139.11 450 137.875 450H136.512V448.091H137.875C138.883 448.091 139.773 447.909 140.546 447.545C141.326 447.174 141.94 446.655 142.387 445.989C142.834 445.322 143.057 444.538 143.057 443.636C143.057 442.78 142.864 442.027 142.478 441.375C142.091 440.723 141.546 440.212 140.841 439.841C140.144 439.47 139.33 439.284 138.398 439.284C137.497 439.284 136.671 439.458 135.921 439.807C135.171 440.155 134.565 440.648 134.103 441.284C133.648 441.92 133.406 442.674 133.375 443.545H131.319C131.349 442.333 131.682 441.269 132.319 440.352C132.962 439.428 133.815 438.708 134.875 438.193C135.944 437.67 137.125 437.409 138.421 437.409C139.792 437.409 140.978 437.689 141.978 438.25C142.978 438.811 143.75 439.557 144.296 440.489C144.849 441.413 145.125 442.432 145.125 443.545C145.125 444.871 144.765 446.008 144.046 446.955C143.326 447.894 142.356 448.545 141.137 448.909V449.057C142.622 449.352 143.788 450.011 144.637 451.034C145.493 452.049 145.921 453.295 145.921 454.773C145.921 456.015 145.595 457.133 144.944 458.125C144.292 459.11 143.398 459.89 142.262 460.466C141.133 461.034 139.837 461.318 138.375 461.318ZM151.64 461.17C151.193 461.17 150.806 461.011 150.481 460.693C150.162 460.367 150.003 459.981 150.003 459.534C150.003 459.08 150.162 458.693 150.481 458.375C150.806 458.057 151.193 457.898 151.64 457.898C152.094 457.898 152.481 458.057 152.799 458.375C153.117 458.693 153.276 459.08 153.276 459.534C153.276 459.83 153.2 460.102 153.049 460.352C152.905 460.602 152.708 460.803 152.458 460.955C152.215 461.098 151.943 461.17 151.64 461.17Z" fill="black"/>
</g>
</g>
<defs>
<filter id="filter0_d_1005_145" x="0" y="0" width="388.667" height="559" filterUnits="userSpaceOnUse" color-interpolation-filters="sRGB">
<feFlood flood-opacity="0" result="BackgroundImageFix"/>
<feColorMatrix in="SourceAlpha" type="matrix" values="0 0 0 0 0 0 0 0 0 0 0 0 0 0 0 0 0 0 127 0" result="hardAlpha"/>
<feOffset dy="4"/>
<feGaussianBlur stdDeviation="12"/>
<feComposite in2="hardAlpha" operator="out"/>
<feColorMatrix type="matrix" values="0 0 0 0 0 0 0 0 0 0 0 0 0 0 0 0 0 0 0.1 0"/>
<feBlend mode="normal" in2="BackgroundImageFix" result="effect1_dropShadow_1005_145"/>
<feBlend mode="normal" in="SourceGraphic" in2="effect1_dropShadow_1005_145" result="shape"/>
</filter>
<clipPath id="clip0_1005_145">
<rect x="24" y="20" width="340.667" height="511" rx="24" fill="white"/>
</clipPath>
</defs>
</svg>
