<svg width="58" height="50" viewBox="0 0 58 50" fill="none" xmlns="http://www.w3.org/2000/svg">
<g clip-path="url(#clip0_1080_139)">
<rect width="57.3057" height="49.0327" transform="matrix(0.99999 0.00457706 -0.00625193 0.99998 0.306641 0)" fill="#E5F1F2"/>
<path d="M9.75213 16.3873L19.303 16.431L19.3541 8.25905L9.80322 8.21533L9.75213 16.3873ZM23.9251 40.9687L33.476 41.0124L33.5271 32.8405L23.9762 32.7968L23.9251 40.9687ZM9.59886 40.9032L19.1497 40.9469L19.2008 32.7749L9.64995 32.7312L9.59886 40.9032ZM9.67549 28.6452L19.2263 28.6889L19.2774 20.517L9.72659 20.4733L9.67549 28.6452ZM24.0018 28.7108L33.5526 28.7545L33.6037 20.5826L24.0529 20.5388L24.0018 28.7108ZM38.4558 8.34648L38.4047 16.5184L47.9555 16.5621L48.0066 8.39019L38.4558 8.34648ZM24.0784 16.4529L33.6292 16.4966L33.6803 8.32462L24.1295 8.2809L24.0784 16.4529ZM38.328 28.7764L47.8789 28.8201L47.93 20.6481L38.3791 20.6044L38.328 28.7764ZM38.2514 41.0343L47.8022 41.078L47.8533 32.9061L38.3025 32.8623L38.2514 41.0343Z" fill="#D0D0D0"/>
</g>
<defs>
<clipPath id="clip0_1080_139">
<rect width="57.3057" height="49.0327" fill="white" transform="matrix(0.99999 0.00457706 -0.00625193 0.99998 0.306641 0)"/>
</clipPath>
</defs>
</svg>
