<svg width="24" height="24" viewBox="0 0 24 24" fill="none" xmlns="http://www.w3.org/2000/svg">
<g clip-path="url(#clip0_624_570)">
<path d="M3.86854 20.1316H6.69697L15.5965 11.2321L12.768 8.40365L3.86854 17.3031V20.1316ZM2.16143 16.1818L12.0609 6.28233C12.4515 5.89181 13.0846 5.89181 13.4751 6.28233L17.7178 10.525C18.1083 10.9155 18.1083 11.5487 17.7178 11.9392L7.81829 21.8387C7.63075 22.0262 7.3764 22.1316 7.11118 22.1316L2.86854 22.1316C2.31626 22.1316 1.86854 21.6839 1.86854 21.1316L1.86854 16.8889C1.86854 16.6237 1.9739 16.3694 2.16143 16.1818ZM17.0107 9.81787L19.8391 6.98944L17.0107 4.16101L14.1822 6.98944L17.0107 9.81787ZM12.0609 6.28233L16.3036 2.03969C16.6941 1.64917 17.3273 1.64917 17.7178 2.03969L21.9604 6.28233C22.3509 6.67286 22.3509 7.30602 21.9604 7.69655L17.7178 11.9392C17.3273 12.3297 16.6941 12.3297 16.3036 11.9392L12.0609 7.69655C11.6704 7.30602 11.6704 6.67286 12.0609 6.28233Z" fill="#4B5568"/>
</g>
<defs>
<clipPath id="clip0_624_570">
<rect width="24" height="24" fill="white"/>
</clipPath>
</defs>
</svg>
