<svg width="130" height="45" viewBox="0 0 130 45" fill="none" xmlns="http://www.w3.org/2000/svg">
<g clip-path="url(#clip0_302_266)">
<path d="M0.799805 0H48.2941V45H0.799805V0ZM43.3547 40.32V4.68H5.73921V40.32H43.3547ZM10.0137 11.61V25.2C10.0137 31.41 13.6233 35.1 19.7025 35.1C25.9718 35.1 29.5814 31.41 29.5814 25.2V11.61H24.6419V25.2C24.6419 28.71 23.0271 30.69 19.7975 30.69C16.3779 30.69 14.8581 28.62 14.8581 25.2V11.61H10.0137ZM35.9456 14.4C37.6554 14.4 38.9852 13.23 38.9852 11.61C38.9852 9.9 37.7504 8.73 35.9456 8.73C34.2358 8.73 32.906 9.9 32.906 11.61C32.906 13.23 34.2358 14.4 35.9456 14.4ZM33.4759 16.56V34.83H38.4153V16.56H33.4759ZM62.9223 27.36C68.2417 27.36 71.7563 24.39 71.7563 19.44C71.7563 14.67 68.3367 11.61 62.9223 11.61H53.6135V34.92H58.5529V27.45H62.9223V27.36ZM62.3524 23.67H58.4579V15.39H62.3524C65.2021 15.39 66.7219 16.92 66.7219 19.44C66.7219 22.14 65.2021 23.67 62.3524 23.67ZM73.3711 25.74C73.3711 31.23 77.0757 35.1 82.3 35.1C85.4346 35.1 87.4294 34.02 88.5693 32.31V34.92H93.5087V16.56H88.5693V19.44C87.3344 17.55 85.3397 16.38 82.3 16.38C76.9807 16.38 73.3711 20.34 73.3711 25.74ZM88.5693 25.74C88.5693 28.89 86.4795 30.96 83.4399 30.96C80.1153 30.96 78.4055 28.71 78.4055 25.74C78.4055 22.5 80.3053 20.43 83.4399 20.43C86.5745 20.43 88.5693 22.59 88.5693 25.74ZM105.857 30.87C103.957 30.87 103.482 30.06 103.482 28.44V20.52H107.757V16.56H103.482V11.52H98.5431V16.56H96.2634V20.52H98.5431V28.44C98.5431 32.76 100.538 34.83 105.287 34.83H107.852V30.87H105.857ZM115.451 19.17V10.53H110.512V34.92H115.451V25.2C115.451 22.05 117.161 20.16 120.105 20.16C122.955 20.16 124.475 21.96 124.475 24.75V34.83H129.414V24.3C129.414 19.53 125.805 16.38 121.245 16.38C118.396 16.38 116.591 17.37 115.451 19.17Z" fill="#FA4616"/>
</g>
<defs>
<clipPath id="clip0_302_266">
<rect width="129.125" height="45" fill="white" transform="translate(0.799805)"/>
</clipPath>
</defs>
</svg>
